<svg version="1.1" viewBox="0.0 0.0 960.0 720.0" fill="none" stroke="none" stroke-linecap="square" stroke-miterlimit="10" xmlns:xlink="http://www.w3.org/1999/xlink" xmlns="http://www.w3.org/2000/svg"><clipPath id="p.0"><path d="m0 0l960.0 0l0 720.0l-960.0 0l0 -720.0z" clip-rule="nonzero"/></clipPath><g clip-path="url(#p.0)"><path fill="#000000" fill-opacity="0.0" d="m0 0l960.0 0l0 720.0l-960.0 0z" fill-rule="evenodd"/><path fill="#1c4587" d="m240.27559 145.61942l479.44885 0l0 177.49606l-479.44885 0z" fill-rule="evenodd"/><path fill="#496a9f" d="m210.69292 116.03674l538.61414 0l-29.582642 29.582672l-479.44885 0z" fill-rule="evenodd"/><path fill="#16376b" d="m210.69292 352.69815l29.582672 -29.582672l479.44885 0l29.582642 29.582672z" fill-rule="evenodd"/><path fill="#768fb7" d="m210.69292 116.03674l29.582672 29.582672l0 177.49606l-29.582672 29.582672z" fill-rule="evenodd"/><path fill="#102950" d="m749.30707 116.03674l0 236.6614l-29.582642 -29.582672l0 -177.49606z" fill-rule="evenodd"/><path fill="#000000" fill-opacity="0.0" d="m210.69292 116.03674l538.61414 0l0 236.6614l-538.61414 0zm29.582672 29.582672l479.44885 0l0 177.49606l-479.44885 0zm-29.582672 -29.582672l29.582672 29.582672m-29.582672 207.07874l29.582672 -29.582672m509.0315 -207.07874l-29.582642 29.582672m29.582642 207.07874l-29.582642 -29.582672" fill-rule="evenodd"/><path stroke="#b7b7b7" stroke-width="1.0" stroke-linejoin="round" stroke-linecap="butt" d="m210.69292 116.03674l538.61414 0l0 236.6614l-538.61414 0zm29.582672 29.582672l479.44885 0l0 177.49606l-479.44885 0zm-29.582672 -29.582672l29.582672 29.582672m-29.582672 207.07874l29.582672 -29.582672m509.0315 -207.07874l-29.582642 29.582672m29.582642 207.07874l-29.582642 -29.582672" fill-rule="evenodd"/><path fill="#000000" fill-opacity="0.0" d="m243.33595 142.71916l467.18115 0l0 177.76378l-467.18115 0z" fill-rule="evenodd"/><path fill="#b7b7b7" d="m271.02347 214.43916l-11.828125 0l0 -43.828125l29.671875 0q4.78125 0 8.109375 1.0q3.328125 0.984375 5.421875 2.796875q2.09375 1.8125 3.03125 4.390625q0.9375 2.5625 0.9375 5.71875q0 2.78125 -0.78125 4.859375q-0.78125 2.0625 -2.109375 3.546875q-1.3125 1.484375 -3.078125 2.515625q-1.75 1.015625 -3.6875 1.671875l14.34375 17.328125l-13.84375 0l-13.265625 -16.140625l-12.921875 0l0 16.140625zm23.390625 -29.984375q0 -1.28125 -0.34375 -2.171875q-0.328125 -0.890625 -1.15625 -1.4375q-0.828125 -0.5625 -2.21875 -0.8125q-1.390625 -0.265625 -3.46875 -0.265625l-16.203125 0l0 9.375l16.203125 0q2.078125 0 3.46875 -0.25q1.390625 -0.265625 2.21875 -0.8125q0.828125 -0.5625 1.15625 -1.453125q0.34375 -0.890625 0.34375 -2.171875zm60.35196 21.6875l-24.4375 0l-4.109375 8.296875l-13.21875 0l22.9375 -43.828125l13.203125 0l22.9375 43.828125l-13.203125 0l-4.109375 -8.296875zm-20.203125 -8.546875l16.015625 0l-7.96875 -16.140625l-8.046875 16.140625zm86.104614 16.84375l-29.578125 -30.109375l0 30.109375l-11.828125 0l0 -43.828125l12.859375 0l29.59375 30.234375l0 -30.234375l11.765625 0l0 43.828125l-12.8125 0zm54.77191 -44.9375q6.4375 0 11.96875 1.09375q5.53125 1.09375 10.15625 2.828125l0 10.71875q-1.8125 -1.03125 -4.09375 -1.984375q-2.28125 -0.953125 -4.96875 -1.6875q-2.671875 -0.734375 -5.734375 -1.171875q-3.0625 -0.453125 -6.4375 -0.453125q-4.21875 0 -7.34375 0.609375q-3.125 0.59375 -5.359375 1.625q-2.234375 1.015625 -3.671875 2.375q-1.421875 1.34375 -2.265625 2.875q-0.828125 1.53125 -1.140625 3.140625q-0.3125 1.59375 -0.3125 3.09375q0 1.296875 0.265625 2.828125q0.265625 1.53125 1.015625 3.0625q0.75 1.53125 2.09375 2.9375q1.34375 1.40625 3.484375 2.5q2.15625 1.078125 5.1875 1.734375q3.03125 0.640625 7.21875 0.640625q2.09375 0 3.65625 -0.125q1.578125 -0.125 2.859375 -0.34375q1.296875 -0.234375 2.421875 -0.546875q1.140625 -0.3125 2.34375 -0.671875l0 -5.296875l-13.265625 0l0 -9.59375l25.109375 0l0 22.390625q-2.359375 0.796875 -5.28125 1.453125q-2.921875 0.65625 -6.03125 1.109375q-3.109375 0.46875 -6.234375 0.71875q-3.125 0.265625 -5.90625 0.265625q-4.296875 0 -8.265625 -0.578125q-3.953125 -0.578125 -7.375 -1.765625q-3.421875 -1.203125 -6.25 -3.046875q-2.828125 -1.859375 -4.828125 -4.40625q-1.984375 -2.5625 -3.09375 -5.859375q-1.09375 -3.296875 -1.09375 -7.40625q0 -4.09375 1.140625 -7.40625q1.15625 -3.3125 3.203125 -5.859375q2.0625 -2.5625 4.953125 -4.40625q2.890625 -1.859375 6.34375 -3.046875q3.46875 -1.203125 7.40625 -1.765625q3.9375 -0.578125 8.125 -0.578125zm35.913544 44.9375l0 -43.828125l44.37497 0l0 9.34375l-32.21875 0l0 7.25l30.546875 0l0 9.34375l-30.546875 0l0 8.546875l32.65625 0l0 9.34375l-44.81247 0z" fill-rule="nonzero"/><path fill="#b7b7b7" d="m367.02347 292.83914l-11.828125 0l0 -43.82811l29.671875 0q4.78125 0 8.109375 1.0q3.328125 0.984375 5.421875 2.796875q2.09375 1.8125 3.03125 4.3906097q0.9375 2.5625 0.9375 5.71875q0 2.78125 -0.78125 4.859375q-0.78125 2.0625 -2.109375 3.546875q-1.3125 1.484375 -3.078125 2.515625q-1.75 1.015625 -3.6875 1.671875l14.34375 17.328125l-13.84375 0l-13.265625 -16.140625l-12.921875 0l0 16.140625zm23.390625 -29.984375q0 -1.28125 -0.34375 -2.171875q-0.328125 -0.890625 -1.15625 -1.4375q-0.828125 -0.5625 -2.21875 -0.8125q-1.390625 -0.265625 -3.46875 -0.265625l-16.203125 0l0 9.375l16.203125 0q2.078125 0 3.46875 -0.25q1.390625 -0.265625 2.21875 -0.8125q0.828125 -0.5625 1.15625 -1.453125q0.34375 -0.890625 0.34375 -2.171875zm25.13321 29.984375l0 -43.82811l44.375 0l0 9.343735l-32.21875 0l0 7.25l30.546875 0l0 9.34375l-30.546875 0l0 8.546875l32.65625 0l0 9.34375l-44.8125 0zm85.64331 0l-13.78125 0l-22.171875 -43.82811l13.21875 0l15.9375 32.98436l15.921875 -32.98436l13.203125 0l-22.328125 43.82811zm29.510254 0l0 -43.82811l44.375 0l0 9.343735l-32.21875 0l0 7.25l30.546875 0l0 9.34375l-30.546875 0l0 8.546875l32.65625 0l0 9.34375l-44.8125 0zm91.45581 -8.296875l-24.4375 0l-4.109375 8.296875l-13.21875 0l22.9375 -43.82811l13.203125 0l22.9375 43.82811l-13.203125 0l-4.109375 -8.296875zm-20.203125 -8.546875l16.015625 0l-7.96875 -16.140625l-8.046875 16.140625zm44.698364 16.84375l0 -43.82811l11.828125 0l0 34.23436l32.0 0l0 9.59375l-43.828125 0z" fill-rule="nonzero"/></g></svg>